<svg width="97" height="85" viewBox="0 0 97 85" fill="none" xmlns="http://www.w3.org/2000/svg">
<path d="M62.8073 3.1768C62.9604 3.38383 63.3048 3.55635 63.5726 3.55635C63.8022 3.55635 65.1414 4.07393 66.519 4.69502C79.0314 10.4918 87.4878 21.9475 88.674 34.7488C88.8653 36.8191 88.9418 39.1654 88.8653 39.9245C88.3679 44.0996 88.2913 45.4108 88.4827 45.2383C89.2097 44.6172 90.6255 39.821 91.0464 36.7501C92.3856 26.2606 87.7556 16.2196 78.3426 9.24966C74.3249 6.28224 68.547 3.79789 63.917 3.00428C62.9221 2.83175 62.616 2.86626 62.8073 3.1768Z" fill="#EA847F"/>
<path d="M41.0472 3.453C36.2642 4.1776 33.8153 4.93671 32.6291 6.00636C32.323 6.31691 32.2082 6.35141 32.3612 6.14438C32.8969 5.41978 31.4046 5.97186 29.9506 7.04151L28.6113 8.04215L31.2898 7.21404C38.5218 5.04023 45.945 4.62617 53.4831 5.97186C55.8172 6.38592 57.9983 6.86899 58.3427 7.04151C58.7253 7.24854 59.2228 7.38656 59.4523 7.38656C60.1794 7.38656 67.8322 10.561 67.8322 10.837C67.8322 10.9751 68.2531 11.2166 68.7506 11.3201C69.2863 11.4236 69.9368 11.7342 70.2046 11.9757C70.4725 12.1827 71.4673 12.8383 72.4239 13.3904C73.3423 13.9425 75.7147 15.8058 77.6279 17.531L81.1482 20.6709L79.9237 18.6697C78.6993 16.7029 76.1356 13.839 73.7632 11.8032C71.7734 10.1124 66.0338 6.79998 63.7379 6.00636C62.5135 5.62681 60.9829 5.07473 60.2942 4.79869C59.6437 4.52265 58.7253 4.28112 58.3044 4.28112C57.8452 4.28112 57.1947 4.1431 56.8121 3.97058C55.8172 3.48751 50.0393 2.90092 46.7869 2.93543C45.218 2.96993 42.6161 3.21147 41.0472 3.453Z" fill="#928FBF"/>
<path d="M10.8686 25.8374C9.01122 29.9205 8.54128 32.3182 9.18369 34.035C9.39224 34.5054 9.36888 34.6169 9.20046 34.3408C8.61097 33.3743 8.43553 34.9062 8.92363 36.8196L9.39233 38.5941L9.909 35.9733C11.381 28.9464 15.1442 23.1715 21.1548 18.7047C23.0126 17.3195 24.8678 16.1012 25.2801 15.985C25.7571 15.8681 26.2147 15.6122 26.347 15.4438C26.7658 14.9103 35.1091 11.8062 35.4512 12.0246C35.6223 12.1338 36.1642 12.0161 36.579 11.7329C37.0159 11.4217 37.7756 11.1901 38.2293 11.1847C38.6402 11.1519 40.0259 10.9406 41.2612 10.6755C42.4745 10.4384 46.1506 10.1718 49.3912 10.1329L55.3109 10.0341L52.1251 9.34911C48.982 8.69145 43.9554 8.30672 40.0655 8.43683C36.8237 8.55917 29.4115 10.1501 27.1052 11.2069C25.9294 11.8051 24.3634 12.4914 23.6245 12.7784C22.9076 13.0374 22.0792 13.5201 21.8367 13.829C21.5722 14.1659 21.0264 14.5341 20.5921 14.6784C19.4202 15.0262 15.3646 18.802 13.5336 21.216C12.6726 22.3945 11.473 24.495 10.8686 25.8374Z" fill="#638FCC"/>
<path d="M18.1996 63.9029C21.1759 67.4509 23.1716 69.063 24.9916 69.4738C25.5032 69.5617 25.5955 69.6378 25.2767 69.6211C24.1612 69.5629 25.4861 70.4981 27.4234 71.129L29.2266 71.702L27.0464 69.9377C21.2355 65.1413 17.4799 59.2602 15.8133 52.3573C15.294 50.2212 14.9257 48.1746 14.9846 47.8007C15.0686 47.3771 15.0185 46.8957 14.9179 46.707C14.5994 46.1097 15.1056 38.1485 15.4411 38.003C15.6089 37.9303 15.7181 37.4572 15.626 36.9939C15.5172 36.4992 15.6097 35.801 15.786 35.4536C15.9203 35.1244 16.2814 33.9614 16.5334 32.8845C16.8022 31.8389 18.0279 28.9076 19.287 26.4262L21.5617 21.8788L19.6653 23.9397C17.8109 25.9824 15.4526 29.5984 14.0172 32.6206C12.8336 35.1467 11.3214 41.6086 11.3625 43.9133C11.4376 45.1194 11.437 46.668 11.4032 47.3794C11.3526 48.0593 11.4613 48.9412 11.6457 49.287C11.8469 49.6643 11.9641 50.2715 11.922 50.6769C11.7706 51.7489 13.5889 56.8055 15.0558 59.4597C15.7851 60.7306 17.2186 62.7412 18.1996 63.9029Z" fill="#A0D0F4"/>
<path d="M83.9272 64.2406C87.277 61.0928 88.6824 59.0633 88.8029 57.3244C88.8064 56.8385 88.8732 56.7446 88.9127 57.0432C89.051 58.0886 89.836 56.7555 90.1765 54.884L90.4777 53.1437L88.9389 55.3612C84.7345 61.2815 78.9686 65.4019 71.7039 67.6843C69.4566 68.3939 67.2798 68.9534 66.8593 68.9381C66.3798 68.9046 65.8612 69.0023 65.6726 69.1159C65.0756 69.4758 56.2571 69.8461 56.0368 69.5488C55.9267 69.4002 55.3883 69.3485 54.8971 69.4833C54.3746 69.637 53.5925 69.6247 53.1798 69.4972C52.7946 69.4069 51.4543 69.1934 50.2281 69.0725C49.0333 68.9327 45.5979 68.1009 42.6498 67.1903L37.2528 65.5521L39.8556 67.1008C42.4308 68.6123 46.8219 70.4268 50.3949 71.4444C53.3784 72.2799 60.7357 73.0053 63.2546 72.7234C64.5631 72.5259 66.2607 72.3627 67.0466 72.319C67.8011 72.2942 68.7481 72.0997 69.0938 71.8913C69.4709 71.664 70.1152 71.4906 70.5672 71.487C71.7697 71.5146 76.983 69.2861 79.6266 67.639C80.8874 66.8253 82.8316 65.2772 83.9272 64.2406Z" fill="#F4C944"/>
<path d="M60.9445 77.6806C65.945 76.6831 68.4987 75.6665 69.7238 74.2591C70.0394 73.8509 70.1591 73.8046 70.0022 74.0762C69.453 75.0267 71.0077 74.2905 72.5134 72.8801L73.9001 71.5609L71.107 72.67C63.5644 75.5836 55.7916 76.2055 47.8688 74.5346C45.4155 74.0207 43.1215 73.4151 42.7577 73.194C42.3532 72.9283 41.8295 72.7539 41.5889 72.7565C40.827 72.7645 32.7529 68.711 32.7482 68.3512C32.7459 68.1713 32.3007 67.8611 31.7776 67.7316C31.2144 67.6026 30.5274 67.205 30.2426 66.8931C29.9584 66.6262 28.9047 65.7826 27.8928 65.0735C26.921 64.364 24.4031 61.9614 22.3689 59.7336L18.6264 55.6794L19.9435 58.2746C21.26 60.8249 23.9953 64.5298 26.516 67.1574C28.6299 69.3393 34.7013 73.5939 37.1208 74.603C38.4105 75.0842 40.0239 75.787 40.7504 76.1392C41.4368 76.4918 42.4034 76.7965 42.8445 76.7919C43.3257 76.7868 44.0098 76.9595 44.4137 77.1802C45.4645 77.7989 51.5299 78.4997 54.938 78.4187C56.5816 78.3564 59.3044 78.0128 60.9445 77.6806Z" fill="#AFC755"/>
<path d="M93.6699 39.9399C94.0805 36.1108 93.9254 34.0617 93.1894 32.9088C92.9669 32.6034 92.9607 32.5076 93.1206 32.6721C93.6804 33.2479 93.5016 31.9788 92.8268 30.6208L92.1907 29.3664L92.3583 31.6072C92.7526 37.643 91.4463 43.4236 88.457 48.8902C87.5339 50.5835 86.5807 52.1438 86.3396 52.3682C86.0573 52.614 85.8137 52.9635 85.7612 53.1393C85.5951 53.6962 80.8579 58.8331 80.598 58.7701C80.468 58.7385 80.1444 59.0058 79.9333 59.3632C79.7135 59.7498 79.2725 60.1772 78.9839 60.3272C78.7278 60.4851 77.8832 61.0974 77.1449 61.704C76.4153 62.2814 74.119 63.6731 72.0575 64.7445L68.297 66.7239L70.4609 66.243C72.5924 65.7543 75.8745 64.4446 78.3332 63.0923C80.3797 61.9544 84.8097 58.3145 86.0815 56.7372C86.7186 55.8859 87.5881 54.8396 88.0053 54.3751C88.4139 53.9399 88.8511 53.2916 88.9473 52.9692C89.0522 52.6175 89.3307 52.1508 89.5806 51.8971C90.2627 51.2454 92.1351 46.9537 92.8458 44.4545C93.1718 43.2449 93.5389 41.1968 93.6699 39.9399Z" fill="#D97C44"/>
<path d="M40.8557 15.7023C38.9808 16.6684 36.111 18.0831 34.5421 18.8422C30.7922 20.671 26.3536 23.2588 26.6214 23.4659C26.698 23.5694 27.4632 23.3278 28.2668 22.9483C29.9887 22.1547 32.7437 21.1195 39.8226 18.5662L44.9117 16.7374L46.5188 17.3585C47.3989 17.7035 48.8912 18.2901 49.8478 18.7042C50.8044 19.0837 53.3681 20.1189 55.5875 21.016C57.8068 21.8786 60.294 22.9138 61.1358 23.2588C68.7504 26.4333 80.8419 30.9534 81.0714 30.7464C81.148 30.6774 78.7756 29.4697 75.791 28.0895C69.0565 25.0186 64.5796 22.7412 62.9725 21.6371C61.9011 20.947 61.7097 20.5674 61.7097 19.4288V18.0831H59.3374C56.2762 18.0831 54.0569 17.531 49.1208 15.5297C46.9397 14.6671 44.95 13.9425 44.7204 13.977C44.4908 13.977 42.7689 14.7706 40.8557 15.7023Z" fill="black"/>
<path d="M40.2054 22.2582C39.7462 22.4997 39.5166 23.0173 39.5166 23.9489C39.5166 25.7087 40.1671 25.7087 40.9324 23.9489C41.3533 22.9828 41.7742 22.5687 42.3099 22.5687C43.0369 22.5687 43.0369 22.7412 42.8073 24.9841C42.5777 27.2614 42.6543 27.4684 43.6874 28.8486C45.2945 30.9189 48.5087 39.7177 47.8965 40.3733C47.6669 40.6493 47.246 40.8563 46.9781 40.8563C46.6337 40.8563 46.4042 41.6844 46.2128 43.3407C46.0598 44.7209 45.371 48.0678 44.644 50.7592C43.9553 53.4851 43.3048 57.0391 43.19 58.6953C43.0752 60.7656 43.1134 61.2487 43.3048 60.1791C43.4578 59.3164 44.3762 56.211 45.3328 53.2781C46.2894 50.3452 47.2077 46.7567 47.3608 45.342C47.5904 43.4442 47.8965 42.478 48.547 41.6844C49.6566 40.4078 49.6949 39.6832 48.7383 37.8889C48.3556 37.1643 47.7434 35.8531 47.4373 34.9905C47.0929 34.1279 46.1363 31.885 45.2562 29.9873C44.2231 27.7445 43.6874 26.0537 43.7257 25.1911C43.7257 24.4665 43.6491 23.3968 43.5343 22.8793C43.3048 22.0166 43.1134 21.8786 42.0803 21.8786C41.3915 21.8786 40.5497 22.0512 40.2054 22.2582Z" fill="black"/>
<path d="M27.0806 26.9854C26.4683 27.2959 25.8944 27.5719 25.8178 27.6065C25.7796 27.6065 25.9709 28.1585 26.277 28.8141C26.851 30.0563 28.0372 39.2001 28.0372 42.5126C28.0372 44.8934 28.5729 45.9285 28.9555 44.3068C29.0703 43.6857 29.1851 39.4071 29.1851 34.7835C29.1851 25.6742 29.2234 25.8467 27.0806 26.9854Z" fill="black"/>
<path d="M37.7944 28.055C36.6082 28.5036 33.8149 31.402 32.9731 33.0237C32.5905 33.8173 32.2461 35.025 32.2461 35.6806C32.2461 37.1298 33.3558 39.4071 34.4654 40.3043L35.3072 40.9598L34.3506 41.9605C33.1644 43.2372 33.4705 43.8583 35.996 45.3765C38.2536 46.7912 38.3301 46.9292 38.1005 48.3439C37.9857 48.9995 38.177 50.5177 38.5597 51.7599C39.3632 54.4513 39.2102 55.2449 37.1822 59.0749C35.5368 62.1458 35.4985 63.112 37.1056 61.3867C40.3963 57.8327 40.9703 53.0711 38.904 46.3426C38.3301 44.4793 38.2153 44.3758 36.723 44.0998C34.7715 43.7202 34.5037 42.9611 35.8429 41.5119C36.3786 40.9253 36.8378 40.3388 36.8378 40.2352C36.8378 40.0972 36.3021 39.7177 35.6899 39.4071C32.8583 37.9579 33.4323 34.0244 36.9908 29.9873C38.2536 28.6071 38.904 27.71 38.6745 27.779C38.5979 27.779 38.2153 27.917 37.7944 28.055Z" fill="black"/>
<path d="M52.4882 28.5036C51.9907 28.8486 51.7994 29.8148 51.6081 32.2301C51.302 35.9221 51.6463 39.1311 52.182 37.8199C52.5647 36.8883 54.5927 36.7848 55.8937 37.6129L56.7355 38.1304L56.6972 34.0589C56.6589 28.6416 56.5059 28.2966 54.6309 28.1585C53.7891 28.0895 52.8325 28.2621 52.4882 28.5036ZM53.5978 30.5739C53.5213 31.9196 53.33 32.4026 52.9091 32.4026C52.182 32.4026 51.9142 29.9873 52.5647 29.2627C53.4065 28.3656 53.7126 28.7796 53.5978 30.5739ZM56.1232 29.6768C56.5824 30.7464 56.3528 32.2646 55.7406 32.4716C54.8605 32.7822 54.057 31.678 54.057 30.2633C54.057 29.2972 54.21 29.1247 54.9753 29.1247C55.4728 29.1247 56.0085 29.3662 56.1232 29.6768ZM53.483 34.5074C53.483 35.5081 53.33 35.8876 52.8325 35.9566C52.2586 36.0602 52.1438 35.8186 52.1438 34.7145C52.1438 33.9899 52.2586 33.2653 52.4116 33.1272C52.9856 32.6097 53.483 33.2308 53.483 34.5074ZM56.3528 34.4729C56.3528 35.7841 56.238 36.0256 55.5876 36.0256C54.7075 36.0256 54.057 35.0595 54.057 33.8173C54.057 33.0582 54.21 32.9202 55.2049 32.9202C56.3146 32.9202 56.3528 32.9892 56.3528 34.4729Z" fill="black"/>
<path d="M63.4696 29.4697C63.0487 30.4014 62.8574 31.9196 62.8574 34.0589C62.8574 37.1988 63.2401 38.7515 63.7375 37.6129C64.0053 36.9918 65.9568 36.8538 67.1047 37.4058C67.7552 37.7509 67.8318 37.6474 67.8318 36.3017C67.8318 35.025 67.7935 34.9215 67.3343 35.5081C66.6838 36.2672 65.9186 35.9221 65.9186 34.818C65.9186 33.0237 66.7221 32.4026 67.6787 33.5068C68.1379 34.0589 68.1761 33.8863 68.1761 32.2301L68.1379 30.3323L67.6022 31.471C66.7986 33.0927 66.1099 32.6787 66.0716 30.5739C66.0334 28.6416 66.7604 28.0895 67.4491 29.5387C67.6787 30.0563 67.7935 30.1253 67.7935 29.7803C67.8318 28.9521 66.5691 28.0895 65.2681 28.0895C64.2349 28.0895 64.0053 28.2966 63.4696 29.4697ZM65.3446 29.1247C65.4594 29.3317 65.4594 30.1598 65.3063 31.0224C65.0385 32.6787 64.3115 33.0582 63.661 31.9541C62.8574 30.5739 64.5028 27.8825 65.3446 29.1247ZM65.3446 34.4729C65.3446 36.1982 64.2349 36.6122 63.6227 35.1285C63.087 33.8518 63.4696 32.8512 64.5028 32.9892C65.1915 33.0582 65.3446 33.3343 65.3446 34.4729Z" fill="black"/>
<path d="M76.7097 36.7847C76.8245 40.8563 77.0541 42.7196 77.475 43.5822C78.0872 44.7554 78.0872 44.7554 78.3168 41.1669C78.4316 39.2001 78.6229 36.4742 78.776 35.1285C78.9673 32.9202 78.929 32.5752 78.202 31.9196C76.6714 30.5394 76.5566 30.8844 76.7097 36.7847Z" fill="black"/>
<path d="M54.0565 40.9943C54.0565 41.0634 55.6636 41.3739 57.6151 41.7189C63.5843 42.7196 65.8037 43.5822 66.6072 45.1349C67.1812 46.3081 66.6072 46.4461 61.5181 46.1701C59.1839 46.0321 56.2376 46.0666 54.9749 46.2046L52.7173 46.4806L53.8652 46.9292C54.6688 47.2397 57.1942 47.3777 62.7043 47.4123C72.7678 47.4123 73.8009 47.5503 74.6045 48.896C74.9106 49.4825 75.2932 50.8282 75.3697 51.8979C75.7524 55.4174 73.8392 57.4877 69.3622 58.5918C66.9516 59.1784 68.2526 59.3164 70.8928 58.7644C74.4131 58.0398 76.2498 56.004 76.2498 52.8295C76.2498 50.5867 75.5993 49.034 74.1453 47.7573C72.4617 46.3081 72.4234 45.687 73.9922 45.687C74.9871 45.687 75.1402 45.5835 75.0254 44.8934C74.9106 44.2033 74.681 44.1343 72.5382 44.0308C70.5867 43.9618 70.1275 44.0308 70.1275 44.4448C70.1275 44.7209 70.3189 45.0659 70.5102 45.1694C71.1989 45.549 70.8928 46.0666 70.051 45.963C69.5536 45.894 68.75 45.2384 68.0995 44.4103C67.1812 43.1336 66.722 42.8576 64.4644 42.271C60.7145 41.3049 58.0743 40.8563 55.9697 40.8563C54.8983 40.8563 54.0565 40.9253 54.0565 40.9943Z" fill="black"/>
<path d="M69.0946 49.2065C68.291 50.1726 68.2145 50.4832 68.8267 51.0008C69.8599 51.9669 73.9541 51.5528 73.9541 50.5177C73.9541 50.3107 73.6097 49.8621 73.1888 49.4826C72.3087 48.6889 69.6685 48.5164 69.0946 49.2065ZM72.4618 49.4826C73.3801 49.9656 73.3801 50.4142 72.4235 50.8627C71.5052 51.3113 68.9798 50.9663 68.9798 50.3797C68.9798 49.2755 70.9312 48.7579 72.4618 49.4826Z" fill="black"/>
<path d="M50.9953 59.1439C50.4596 59.3164 53.6356 59.4199 58.4186 59.4545C63.0486 59.489 66.722 59.4199 66.6454 59.3509C66.3011 59.0749 51.8754 58.9024 50.9953 59.1439Z" fill="black"/>
</svg>
